<svg id="Layer_1" data-name="Layer 1" xmlns="http://www.w3.org/2000/svg" viewBox="0 0 551.65 121.98"><defs><style>.cls-1{fill:#f49a29;}.cls-2{fill:#989897;}</style></defs><title>af_full</title><path class="cls-1" d="M638,374.07c.31-.39.62-.8.91-1.21.14-.2.27-.4.4-.6.24-.36.46-.73.67-1.1s.29-.51.42-.78.36-.71.52-1.07l.36-.85c.15-.38.29-.77.42-1.16s.17-.53.24-.79c.13-.45.25-.91.35-1.38.05-.2.09-.4.13-.6.11-.56.19-1.12.25-1.69,0-.11,0-.22,0-.33a20.21,20.21,0,0,0,.1-2.07v-.09h0c0-12.05-9.58-21.77-22.25-21.77a22.35,22.35,0,0,0-15.33,5.87l.07.08a23.6,23.6,0,0,1,5.4,10.58,10.65,10.65,0,0,1,9.86-6.18c6.55,0,11,5.16,11,11.45a11.76,11.76,0,0,1-3.08,8.09,11.22,11.22,0,0,1-15.55.35l-.2-.19-.34-.36-.39-.47-.17-.21c-.19-.25-.37-.51-.54-.77l-.1-.17c-.15-.26-.3-.53-.44-.8l0-.07a12.24,12.24,0,0,1-1.24-5.43h0A21.6,21.6,0,0,0,604,345.89c-.45-.5-.92-1-1.42-1.44h0c-.48-.44-1-.86-1.49-1.26l-.09-.07c-.51-.38-1-.75-1.58-1.09l-.11-.07a21.41,21.41,0,0,0-3.58-1.8h0c-.6-.24-1.21-.44-1.84-.63l-.24-.07c-.6-.17-1.21-.31-1.84-.43l-.3-.06c-.63-.11-1.26-.2-1.91-.27l-.26,0q-1-.09-2.07-.09c-.39,0-.79,0-1.18,0a21.84,21.84,0,0,0-2.3.22,22.58,22.58,0,0,0-2.5.51c-.5.13-1,.28-1.48.45s-.92.32-1.36.5-.67.28-1,.44a21.44,21.44,0,0,0-1.9,1l-.9.57c-.59.39-1.16.81-1.7,1.25-.28.22-.54.45-.8.69s-.52.47-.77.72-.74.77-1.09,1.18c-.21.24-.41.48-.61.73a22.52,22.52,0,0,0-1.87,2.78c-.24.42-.46.84-.67,1.28s-.3.64-.43,1a21.57,21.57,0,0,0-1.59,6.27c-.07.74-.11,1.48-.11,2.24,0,12.07,9.57,21.73,22.25,21.73a22.45,22.45,0,0,0,15.36-5.85l-.09-.1a23.37,23.37,0,0,1-5.39-10.52,10.66,10.66,0,0,1-9.88,6.12c-6.55,0-11-5.09-11-11.38a11.76,11.76,0,0,1,3.07-8.1,10.7,10.7,0,0,1,8-3.37c.37,0,.72,0,1.08.05l.28,0c.29,0,.58.08.86.13l.18,0c.33.07.65.16,1,.25l.27.09c.23.08.46.16.68.26l.27.11c.28.12.55.26.81.4a2.61,2.61,0,0,1,.28.17c.17.1.35.21.52.33l.32.22c.18.13.35.27.51.41a5,5,0,0,1,.42.37l.38.36.32.35.29.34a8.05,8.05,0,0,1,.49.66,4.15,4.15,0,0,1,.24.34c.1.15.19.31.28.46l.18.32.25.5h0a12.18,12.18,0,0,1,1.17,5.29h0a21.61,21.61,0,0,0,5.5,14.46,22.9,22.9,0,0,0,32.63.93h0c.44-.45.87-.91,1.27-1.39Z" transform="translate(-364.11 -338.58)"/><path class="cls-2" d="M432.28,440.62H415.41v-5.26A27.37,27.37,0,0,1,397.18,442a32.9,32.9,0,0,1-24.7-11.07A35.13,35.13,0,0,1,364.11,408c0-19.31,14.31-34.16,32.13-34.16a30,30,0,0,1,19.17,6.62v-5.27h16.87ZM414.73,398.1a20.12,20.12,0,0,0-16.2-8.1c-10.26,0-16.87,8.51-16.87,18,0,10.25,7.42,17.81,17.28,17.81a19.17,19.17,0,0,0,15.79-8.1Z" transform="translate(-364.11 -338.58)"/><path class="cls-2" d="M450.56,420.64c4.45,4.05,11.34,6.48,17.95,6.48,4.73,0,8.37-2.29,8.37-5.53,0-9.85-31.72-6.35-31.72-27.4,0-12.56,12.15-20.39,25.11-20.39,8.5,0,15,.65,25.26,9.27l-11.36,10a22.07,22.07,0,0,0-12.55-4.46c-4.86,0-8.91,1.89-8.91,5.27,0,8.5,31.72,5.13,31.72,27.8,0,12.56-12.28,20.25-26.05,20.25-9.05,0-20-4-28.29-12Z" transform="translate(-364.11 -338.58)"/><path class="cls-2" d="M566,427.26c-7.7,10.26-17.41,14.71-29.7,14.71-20.25,0-35.1-15.12-35.1-34s15.26-34.16,35.24-34.16A34.91,34.91,0,0,1,564,386.9l-12.42,10.93A18.94,18.94,0,0,0,536.47,390c-10.13,0-17.69,8-17.69,18,0,10.25,7.43,17.81,18.09,17.81a19.17,19.17,0,0,0,15.66-8.64Z" transform="translate(-364.11 -338.58)"/><path class="cls-2" d="M595.08,442H577.53V390h17.55Z" transform="translate(-364.11 -338.58)"/><path class="cls-2" d="M628.88,442H611.33V390h17.55Z" transform="translate(-364.11 -338.58)"/><path class="cls-2" d="M725.88,440.62H708.33V344.78h17.55Z" transform="translate(-364.11 -338.58)"/><path class="cls-2" d="M769.56,373.8c19.84,0,34.83,15.26,34.83,34.16s-15,34-34.83,34-34.83-15.12-34.83-34S749.71,373.8,769.56,373.8Zm0,52c10.26,0,17.28-8,17.28-17.81s-7-18-17.28-18-17.28,8.1-17.28,18S759.3,425.77,769.56,425.77Z" transform="translate(-364.11 -338.58)"/><path class="cls-2" d="M843.13,440.62H831l-27.54-65.47h17.68l15.93,38.2,16.47-38.2h12.15L882,413.35l16.06-38.2h17.68l-27.53,65.47H876.07L859.6,402.56Z" transform="translate(-364.11 -338.58)"/><path class="cls-2" d="M679.56,362.73c2-2.59,2.4-4.19,17.82-4.06V343.43c-24.12,0-27.59,2.86-31.78,7.69s-6,10.8-6,21.33v2.7H642.71V390h16.87l.09,9.82-.09,14.53v18.21c-.07,5.55-.61,6.88-2,8.69-2.16,2.57-5.53,3.78-9.85,3.78h-5v15.53h6c11.37,0,17.24-3.24,21.83-7.7s6.63-13,6.63-23.53V390h20.25V375.15H677.13v-2C677.13,367.05,678.07,364.62,679.56,362.73Z" transform="translate(-364.11 -338.58)"/></svg>