<?xml version="1.0" encoding="utf-8"?>
<!-- Generator: Adobe Illustrator 24.0.2, SVG Export Plug-In . SVG Version: 6.00 Build 0)  -->
<svg version="1.1" id="Layer_1" xmlns="http://www.w3.org/2000/svg" xmlns:xlink="http://www.w3.org/1999/xlink" x="0px" y="0px"
	 viewBox="0 0 1280 800" style="enable-background:new 0 0 1280 800;" xml:space="preserve">
<style type="text/css">
	.st0{fill:#F4992A;}
</style>
<g>
	<path class="st0" d="M674.99,468.92c-12.36,0-22.21-4.68-29.9-12.07c-0.27-0.27-0.55-0.52-0.82-0.8c-0.46-0.47-0.91-0.96-1.36-1.45
		c-0.54-0.61-1.07-1.23-1.57-1.86c-0.23-0.28-0.47-0.56-0.69-0.85c-0.76-1.01-1.48-2.05-2.15-3.13c-0.14-0.22-0.27-0.44-0.41-0.67
		c-0.63-1.05-1.24-2.12-1.79-3.22c-0.04-0.09-0.09-0.17-0.13-0.26c-3.21-6.52-4.96-13.97-4.96-21.86h-0.09
		c-0.04-22.38-8.26-42.75-22.1-58.22c-1.81-2.02-3.72-3.94-5.71-5.78c0,0,0,0,0,0c-1.92-1.78-3.93-3.46-6.01-5.07
		c-0.12-0.09-0.24-0.19-0.37-0.28c-2.05-1.56-4.17-3.04-6.36-4.42c-0.14-0.09-0.28-0.17-0.42-0.26c-4.53-2.82-9.34-5.26-14.42-7.26
		c-0.04-0.02-0.09-0.04-0.13-0.05c-2.41-0.94-4.89-1.77-7.41-2.51c-0.32-0.09-0.63-0.19-0.95-0.28c-2.42-0.68-4.89-1.27-7.41-1.76
		c-0.41-0.08-0.82-0.15-1.23-0.23c-2.52-0.46-5.08-0.82-7.69-1.08c-0.35-0.03-0.7-0.05-1.05-0.08c-2.73-0.23-5.5-0.38-8.31-0.38
		c-1.59,0-3.18,0.04-4.75,0.11c-3.14,0.15-6.23,0.45-9.25,0.9c-3.44,0.5-6.8,1.21-10.09,2.07c-2.02,0.53-4,1.13-5.96,1.78
		c-1.85,0.62-3.69,1.29-5.48,2.02c-1.35,0.55-2.68,1.14-3.99,1.76c-2.62,1.23-5.17,2.58-7.63,4.05c-1.23,0.73-2.44,1.49-3.63,2.28
		c-2.38,1.58-4.66,3.26-6.86,5.05c-1.1,0.89-2.17,1.81-3.22,2.76c-1.05,0.94-2.08,1.91-3.08,2.91c-1.54,1.52-2.99,3.12-4.41,4.75
		c-0.84,0.96-1.65,1.94-2.44,2.94c-2.79,3.52-5.31,7.26-7.53,11.2c-0.95,1.68-1.86,3.38-2.7,5.13c-0.61,1.28-1.2,2.58-1.75,3.89
		c-3.31,7.88-5.49,16.36-6.37,25.23c-0.29,2.96-0.45,5.96-0.45,9c0,48.6,38.53,87.48,89.56,87.48c24.43,0,45.97-8.94,61.82-23.56
		l-0.35-0.39c-10.83-12.04-18.18-26.64-21.72-42.35c-6.99,14.65-21.32,24.65-39.74,24.65c-26.38,0-44.43-20.48-44.43-45.82
		c0-12.67,4.51-24.21,12.32-32.59c7.81-8.37,18.92-13.58,32.11-13.58c1.47,0,2.91,0.09,4.32,0.21c0.39,0.03,0.77,0.08,1.15,0.12
		c1.17,0.13,2.32,0.31,3.44,0.52c0.25,0.05,0.5,0.08,0.75,0.13c1.31,0.27,2.58,0.61,3.83,0.99c0.37,0.11,0.73,0.24,1.09,0.36
		c0.93,0.31,1.85,0.66,2.74,1.03c0.37,0.15,0.74,0.3,1.1,0.46c1.11,0.5,2.2,1.04,3.26,1.62c0.37,0.21,0.73,0.44,1.1,0.66
		c0.72,0.43,1.42,0.87,2.11,1.34c0.43,0.29,0.87,0.59,1.29,0.9c0.71,0.52,1.39,1.07,2.06,1.63c0.58,0.49,1.15,0.99,1.7,1.51
		c0.51,0.48,1.02,0.96,1.51,1.46c0.45,0.46,0.88,0.93,1.31,1.41c0.39,0.44,0.76,0.89,1.14,1.35c0.7,0.86,1.37,1.74,2.01,2.66
		c0.32,0.46,0.65,0.91,0.95,1.38c0.39,0.61,0.76,1.23,1.12,1.86c0.25,0.43,0.49,0.86,0.72,1.3c0.35,0.65,0.7,1.3,1.02,1.98
		c3.04,6.39,4.71,13.63,4.71,21.3h0.09c0.04,22.38,8.26,42.75,22.11,58.22c16.17,18.06,39.99,29.43,67.45,29.43L674.99,468.92z"/>
	<path class="st0" d="M778.05,301.04c5.53-7.15,6.6-11.55,49.08-11.19v-41.98c-66.42,0-75.98,7.89-87.53,21.19
		c-11.58,13.34-16.58,29.75-16.58,58.75v7.44l-44.76-0.08l0,0c-0.87-0.02-1.74-0.06-2.61-0.06c-24.39,0-45.9,8.98-61.74,23.65
		l0.28,0.32c10.84,12.11,18.2,26.79,21.73,42.56c7-14.73,20.67-25.09,39.06-25.09c0.87,0,2.62,0,2.7,0c0,0,0.01,0,0.01,0h45.32
		l0.25,26.66l-0.22-18.8v11.41v80.45c-0.2,15.29-1.69,18.96-5.61,23.95c-5.95,7.07-15.25,10.41-27.14,10.41c-4.46,0-10.34,0-15.32,0
		l0.66,41.66c0,0,16.3,0,18.03,0c31.32,0.05,46.83-7.82,59.48-20.09c12.64-12.27,18.26-35.82,18.26-64.82v-66.71v-7.01l-0.03-17.11
		h55.78v-41.29h-55.78v-5.58C771.35,312.94,773.96,306.25,778.05,301.04z"/>
</g>
</svg>
